Coordinates
version=1
nRows=9
nColumns=36
inDegrees=yes

Units are S.I. units (second, meters, Newtons, ...)
If the header above contains a line with 'inDegrees', this indicates whether rotational values are in degrees (yes) or radians (no).

endheader
time	pelvis_tilt	pelvis_list	pelvis_rotation	pelvis_tx	pelvis_ty	pelvis_tz	hip_flexion_r	hip_adduction_r	hip_rotation_r	knee_angle_r	knee_angle_r_beta	ankle_angle_r	subtalar_angle_r	mtp_angle_r	hip_flexion_l	hip_adduction_l	hip_rotation_l	knee_angle_l	knee_angle_l_beta	ankle_angle_l	subtalar_angle_l	mtp_angle_l	lumbar_extension	lumbar_bending	lumbar_rotation	arm_flex_r	arm_add_r	arm_rot_r	elbow_flex_r	pro_sup_r	arm_flex_l	arm_add_l	arm_rot_l	elbow_flex_l	pro_sup_l
      5.05000000	     -5.22213447	     -0.27336016	      2.86041815	      0.36054429	      0.80592443	     -0.10317801	     49.54259814	     13.71027485	      6.08090051	     67.35495518	      1.17556574	     32.53719748	    -10.99735360	     -7.49999955	     60.95121572	    -13.17350783	    -10.94046713	     24.79477056	      0.43275038	    -12.44213459	    -17.58495864	     -7.49999955	    -33.21531702	     -0.43545152	      6.06245415	     63.59478524	      5.94454385	     70.66964801	    118.73651237	     91.32481385	     53.84425648	      7.16684561	     65.27121377	    126.17596887	     84.75990536
      5.06666670	     -5.42672621	     -0.34006419	      3.26092780	      0.36563703	      0.81008724	     -0.10107309	     49.14654763	     13.50042275	      5.99496213	     66.50857221	      1.16079357	     31.98451880	    -11.16918650	     -7.49999955	     61.01708731	    -13.10128134	    -10.41773937	     24.67472989	      0.43065528	    -12.41436739	    -17.52703398	     -7.49999955	    -32.54302732	     -0.31572556	      6.23344745	     63.87581876	      6.14247953	     70.61548851	    118.73621109	     91.28447367	     53.55335474	      7.18498254	     65.50578131	    126.24555827	     84.78208870
      5.08333330	     -5.74740406	     -0.39715437	      3.51270185	      0.36513181	      0.81557158	     -0.10192376	     48.74499733	     13.25169679	      6.05960326	     65.37851363	      1.14107032	     31.53019994	    -10.84224580	     -7.49999956	     61.59104284	    -13.04993660	     -8.72472378	     26.01164618	      0.45398887	    -11.43795458	    -17.12498234	     -7.49999956	    -31.77307452	     -0.11258705	      6.10349554	     63.70146434	      6.34517129	     70.87522168	    118.75345088	     91.22058644	     53.80346078	      7.50673215	     65.41774148	    126.34892114	     84.75284196
      5.10000000	     -5.85094403	     -0.03516743	      3.74089551	      0.36921118	      0.82010134	     -0.10548476	     48.09494279	     12.59908201	      6.34521087	     64.52140893	      1.12611102	     31.02239066	    -10.65198450	     -7.49999956	     61.59989519	    -12.69792150	     -7.81868789	     26.74780696	      0.46683730	    -10.63372878	    -17.25983402	     -7.49999956	    -30.81692866	     -0.28597322	      6.06422964	     63.34511828	      6.44756368	     70.92829619	    118.87757170	     91.19466687	     53.50491100	      7.76613386	     65.60732122	    126.54279095	     84.74885011
      5.11666670	     -6.11082112	      0.07800111	      4.41318991	      0.36865753	      0.83095729	     -0.10620197	     47.69008033	     11.90507366	      6.49384444	     63.32650621	      1.10525604	     29.78488926	    -10.74880908	     -7.49999957	     61.78243197	    -12.08237797	     -7.02910033	     27.28785056	      0.47626284	     -9.93685928	    -16.51298935	     -7.49999957	    -29.72352077	      0.22002074	      6.35104262	     62.36457830	      6.15208294	     70.92915123	    119.32285105	     89.72629657	     53.16293862	      8.03850486	     66.32058397	    126.31421857	     83.65292463
      5.13333330	     -5.72526506	      0.33533235	      5.13020619	      0.36869129	      0.83988410	     -0.10699539	     46.66927139	     11.14695018	      6.74313284	     62.24662484	      1.08640855	     28.31612846	    -10.46727222	     -7.49999958	     60.85619101	    -11.50591355	     -7.17971492	     26.98524484	      0.47098137	    -10.10694846	    -16.75959304	     -7.49999958	    -29.39498871	      0.66368244	      6.53593547	     61.98993625	      5.83716063	     71.17488007	    119.49266229	     89.63467788	     53.56688204	      8.52058548	     66.99361251	    125.87279443	     83.55645595
      5.15000000	     -4.97077812	      0.41729901	      5.70697428	      0.37334207	      0.85176095	     -0.10529276	     44.66215369	     10.85507330	      7.13706568	     60.33681847	      1.05307614	     26.99095950	    -10.45742456	     -7.49999959	     58.97681347	    -11.29587860	     -7.49324709	     25.83661895	      0.45093407	    -10.42007793	    -16.34101596	     -7.49999959	    -29.47625756	      1.05543622	      6.69275400	     61.49963097	      5.47374465	     71.52015700	    119.45716726	     89.50395554	     53.86838371	      9.00190915	     67.77364631	    125.53463251	     83.43920530
      5.16666670	     -4.90754673	      0.84522377	      6.22004029	      0.36828600	      0.85102810	     -0.10838032	     44.25189626	     10.16052727	      7.66881478	     59.50815698	      1.03861327	     25.59091691	    -10.62072624	     -7.49999959	     58.39782643	    -10.87684504	     -8.08030701	     25.60985401	      0.44697627	    -10.68761412	    -16.75836662	     -7.49999959	    -29.11815076	      1.20574357	      6.83172757	     61.49860721	      5.31220090	     71.34635298	    119.96880184	     89.23747819	     55.01018519	      9.53359663	     68.40978134	    125.72779963	     83.18084394
      5.18333330	     -5.11664279	      1.07073360	      6.73308101	      0.37103136	      0.85781847	     -0.11175938	     43.63739392	      9.40390578	      8.27854390	     57.82440344	      1.00922623	     24.36977138	     -9.97031703	     -7.49999960	     58.00254973	    -10.55309766	     -8.38567601	     25.50703870	      0.44518181	    -11.17557996	    -16.49172249	     -7.49999960	    -28.00147197	      1.55283162	      6.75354228	     61.63570312	      5.34120985	     71.27530714	    120.15419879	     89.06891204	     55.35516734	      9.78857263	     68.76914921	    125.51462676	     83.04497599
